# xmcd
#
# Track frame offsets: 
#        150
#        20498
#        43425
#        57992
#        72414
#        90455
#        117163
#        134030
#        150472
#        160829
#        173176
#
# Disc length: 2671 seconds
#
# Revision: 0
# Processed by: cddbd v1.5.2PL0 Copyright (c) Steve Scherf et al.
# Submitted via: ExactAudioCopyFreeDBPlugin 1.0
#
DISCID=970a6d0b
DTITLE=Chica and the Folder - 42 Mädchen
DYEAR=2003
DGENRE=Blues
TTITLE0=Der Wolf und P
TTITLE1=Al que le toca la hora
TTITLE2=Tibetteppich
TTITLE3=Love
TTITLE4=A certain track
TTITLE5=Ultimas palabras
TTITLE6=I'll come running
TTITLE7=Liturgy beat
TTITLE8=Daleko
TTITLE9=Grunewald
TTITLE10=Max der Kiffer
EXTD=
EXTT0=
EXTT1=
EXTT2=
EXTT3=
EXTT4=
EXTT5=
EXTT6=
EXTT7=
EXTT8=
EXTT9=
EXTT10=
PLAYORDER=
